<mxfile host="app.diagrams.net" modified="2024-05-19T10:23:55.857Z" agent="Mozilla/5.0 (Windows NT 10.0; Win64; x64) AppleWebKit/537.36 (KHTML, like Gecko) Chrome/125.0.0.0 Safari/537.36" etag="YW7a3HpG1aLYkAZWVIWE" version="24.4.4" type="github">
  <diagram name="Page-1" id="EU-p9M-t1sa-vFTRk_Qn">
    <mxGraphModel dx="2150" dy="723" grid="1" gridSize="10" guides="1" tooltips="1" connect="1" arrows="1" fold="1" page="1" pageScale="1" pageWidth="827" pageHeight="1169" math="0" shadow="0">
      <root>
        <mxCell id="0" />
        <mxCell id="1" parent="0" />
        <mxCell id="BFGDttCAyRaGTbsQON56-131" style="edgeStyle=orthogonalEdgeStyle;rounded=0;orthogonalLoop=1;jettySize=auto;html=1;" parent="1" source="BFGDttCAyRaGTbsQON56-125" target="BFGDttCAyRaGTbsQON56-130" edge="1">
          <mxGeometry relative="1" as="geometry" />
        </mxCell>
        <mxCell id="BFGDttCAyRaGTbsQON56-125" value="" style="outlineConnect=0;dashed=0;verticalLabelPosition=bottom;verticalAlign=top;align=center;html=1;shape=mxgraph.aws3.internet_2;fillColor=#D2D3D3;gradientColor=none;" parent="1" vertex="1">
          <mxGeometry x="380" y="140" width="79.5" height="54" as="geometry" />
        </mxCell>
        <mxCell id="BFGDttCAyRaGTbsQON56-127" value="&lt;font style=&quot;font-size: 20px;&quot;&gt;AWS Cloud&lt;/font&gt;" style="points=[[0,0],[0.25,0],[0.5,0],[0.75,0],[1,0],[1,0.25],[1,0.5],[1,0.75],[1,1],[0.75,1],[0.5,1],[0.25,1],[0,1],[0,0.75],[0,0.5],[0,0.25]];outlineConnect=0;gradientColor=none;html=1;whiteSpace=wrap;fontSize=12;fontStyle=0;container=1;pointerEvents=0;collapsible=0;recursiveResize=0;shape=mxgraph.aws4.group;grIcon=mxgraph.aws4.group_aws_cloud_alt;strokeColor=#232F3E;fillColor=none;verticalAlign=top;align=left;spacingLeft=30;fontColor=#232F3E;dashed=0;" parent="1" vertex="1">
          <mxGeometry x="-185.25" y="210" width="1210" height="970" as="geometry" />
        </mxCell>
        <mxCell id="BFGDttCAyRaGTbsQON56-129" value="&lt;font style=&quot;font-size: 20px;&quot;&gt;US East (N. Virginia) us-east-1&lt;/font&gt;" style="points=[[0,0],[0.25,0],[0.5,0],[0.75,0],[1,0],[1,0.25],[1,0.5],[1,0.75],[1,1],[0.75,1],[0.5,1],[0.25,1],[0,1],[0,0.75],[0,0.5],[0,0.25]];outlineConnect=0;gradientColor=none;html=1;whiteSpace=wrap;fontSize=12;fontStyle=0;container=1;pointerEvents=0;collapsible=0;recursiveResize=0;shape=mxgraph.aws4.group;grIcon=mxgraph.aws4.group_region;strokeColor=#00A4A6;fillColor=none;verticalAlign=top;align=left;spacingLeft=30;fontColor=#147EBA;dashed=1;" parent="BFGDttCAyRaGTbsQON56-127" vertex="1">
          <mxGeometry x="27.62" y="50" width="1154.75" height="890" as="geometry" />
        </mxCell>
        <mxCell id="BFGDttCAyRaGTbsQON56-130" value="" style="sketch=0;outlineConnect=0;fontColor=#232F3E;gradientColor=none;fillColor=#8C4FFF;strokeColor=none;dashed=0;verticalLabelPosition=bottom;verticalAlign=top;align=center;html=1;fontSize=12;fontStyle=0;aspect=fixed;pointerEvents=1;shape=mxgraph.aws4.internet_gateway;" parent="BFGDttCAyRaGTbsQON56-129" vertex="1">
          <mxGeometry x="539.13" y="20" width="78" height="78" as="geometry" />
        </mxCell>
        <mxCell id="BFGDttCAyRaGTbsQON56-128" value="" style="sketch=0;outlineConnect=0;fontColor=#232F3E;gradientColor=none;fillColor=#7AA116;strokeColor=none;dashed=0;verticalLabelPosition=bottom;verticalAlign=top;align=center;html=1;fontSize=12;fontStyle=0;aspect=fixed;pointerEvents=1;shape=mxgraph.aws4.bucket_with_objects;" parent="1" vertex="1">
          <mxGeometry x="40" y="100" width="75" height="78" as="geometry" />
        </mxCell>
        <mxCell id="BFGDttCAyRaGTbsQON56-151" value="&lt;font size=&quot;1&quot; style=&quot;&quot;&gt;&lt;b style=&quot;font-size: 18px;&quot;&gt;s3878023-web-bucket&lt;/b&gt;&lt;/font&gt;" style="text;html=1;align=center;verticalAlign=middle;whiteSpace=wrap;rounded=0;" parent="1" vertex="1">
          <mxGeometry x="-160" y="124" width="200" height="30" as="geometry" />
        </mxCell>
        <mxCell id="BFGDttCAyRaGTbsQON56-152" value="Task C" style="text;strokeColor=none;fillColor=none;html=1;fontSize=20;fontStyle=1;verticalAlign=middle;align=center;fontColor=#FF0080;" parent="1" vertex="1">
          <mxGeometry x="108.82000000000005" y="120" width="92.37" height="40" as="geometry" />
        </mxCell>
        <mxCell id="BFGDttCAyRaGTbsQON56-132" value="&lt;font color=&quot;#000000&quot; style=&quot;font-size: 17px;&quot;&gt;&lt;b&gt;VPC - (S3878023: 10.0.0.0/16)&lt;/b&gt;&lt;/font&gt;" style="points=[[0,0],[0.25,0],[0.5,0],[0.75,0],[1,0],[1,0.25],[1,0.5],[1,0.75],[1,1],[0.75,1],[0.5,1],[0.25,1],[0,1],[0,0.75],[0,0.5],[0,0.25]];outlineConnect=0;gradientColor=none;html=1;whiteSpace=wrap;fontSize=12;fontStyle=0;container=1;pointerEvents=0;collapsible=0;recursiveResize=0;shape=mxgraph.aws4.group;grIcon=mxgraph.aws4.group_vpc2;strokeColor=#8C4FFF;fillColor=none;verticalAlign=top;align=left;spacingLeft=30;fontColor=#AAB7B8;dashed=0;" parent="1" vertex="1">
          <mxGeometry x="-120" y="310" width="1090" height="820" as="geometry" />
        </mxCell>
        <mxCell id="BFGDttCAyRaGTbsQON56-133" value="&lt;font style=&quot;font-size: 15px;&quot;&gt;us-east-1a&lt;/font&gt;" style="fillColor=none;strokeColor=#5A6C86;dashed=1;verticalAlign=top;fontStyle=0;fontColor=#5A6C86;whiteSpace=wrap;html=1;" parent="BFGDttCAyRaGTbsQON56-132" vertex="1">
          <mxGeometry x="60" y="40" width="430" height="760" as="geometry" />
        </mxCell>
        <mxCell id="BFGDttCAyRaGTbsQON56-134" value="&lt;font style=&quot;font-size: 15px;&quot;&gt;us-east-1b&lt;/font&gt;" style="fillColor=none;strokeColor=#5A6C86;dashed=1;verticalAlign=top;fontStyle=0;fontColor=#5A6C86;whiteSpace=wrap;html=1;movable=1;resizable=1;rotatable=1;deletable=1;editable=1;locked=0;connectable=1;" parent="BFGDttCAyRaGTbsQON56-132" vertex="1">
          <mxGeometry x="600" y="40" width="430" height="760" as="geometry" />
        </mxCell>
        <mxCell id="BFGDttCAyRaGTbsQON56-136" value="&lt;font style=&quot;font-size: 15px;&quot;&gt;s3878023-subnet-private1: 10.0.2.0/24&lt;/font&gt;" style="points=[[0,0],[0.25,0],[0.5,0],[0.75,0],[1,0],[1,0.25],[1,0.5],[1,0.75],[1,1],[0.75,1],[0.5,1],[0.25,1],[0,1],[0,0.75],[0,0.5],[0,0.25]];outlineConnect=0;gradientColor=none;html=1;whiteSpace=wrap;fontSize=12;fontStyle=0;container=1;pointerEvents=0;collapsible=0;recursiveResize=0;shape=mxgraph.aws4.group;grIcon=mxgraph.aws4.group_security_group;grStroke=0;strokeColor=#00A4A6;fillColor=#E6F6F7;verticalAlign=top;align=left;spacingLeft=30;fontColor=#147EBA;dashed=0;" parent="BFGDttCAyRaGTbsQON56-132" vertex="1">
          <mxGeometry x="80" y="410" width="390" height="380" as="geometry" />
        </mxCell>
        <mxCell id="BFGDttCAyRaGTbsQON56-137" value="&lt;font style=&quot;font-size: 15px;&quot;&gt;s3878023-subnet-public2: 10.0.3.0/24&lt;/font&gt;" style="points=[[0,0],[0.25,0],[0.5,0],[0.75,0],[1,0],[1,0.25],[1,0.5],[1,0.75],[1,1],[0.75,1],[0.5,1],[0.25,1],[0,1],[0,0.75],[0,0.5],[0,0.25]];outlineConnect=0;gradientColor=none;html=1;whiteSpace=wrap;fontSize=12;fontStyle=0;container=1;pointerEvents=0;collapsible=0;recursiveResize=0;shape=mxgraph.aws4.group;grIcon=mxgraph.aws4.group_security_group;grStroke=0;strokeColor=#7AA116;fillColor=#F2F6E8;verticalAlign=top;align=left;spacingLeft=30;fontColor=#248814;dashed=0;" parent="BFGDttCAyRaGTbsQON56-132" vertex="1">
          <mxGeometry x="620" y="90" width="390" height="310" as="geometry" />
        </mxCell>
        <mxCell id="BFGDttCAyRaGTbsQON56-143" value="Elastic Beanstalk container: Web-Server-Environment" style="points=[[0,0],[0.25,0],[0.5,0],[0.75,0],[1,0],[1,0.25],[1,0.5],[1,0.75],[1,1],[0.75,1],[0.5,1],[0.25,1],[0,1],[0,0.75],[0,0.5],[0,0.25]];outlineConnect=0;gradientColor=none;html=1;whiteSpace=wrap;fontSize=12;fontStyle=0;container=1;pointerEvents=0;collapsible=0;recursiveResize=0;shape=mxgraph.aws4.group;grIcon=mxgraph.aws4.group_elastic_beanstalk;strokeColor=#D86613;fillColor=none;verticalAlign=top;align=left;spacingLeft=30;fontColor=#D86613;dashed=0;" parent="BFGDttCAyRaGTbsQON56-137" vertex="1">
          <mxGeometry x="92.5" y="40" width="205" height="140" as="geometry" />
        </mxCell>
        <mxCell id="BFGDttCAyRaGTbsQON56-145" value="Web-Server-Environment-env" style="text;html=1;align=center;verticalAlign=middle;whiteSpace=wrap;rounded=0;fontSize=12;" parent="BFGDttCAyRaGTbsQON56-143" vertex="1">
          <mxGeometry x="80" y="65" width="105" height="30" as="geometry" />
        </mxCell>
        <mxCell id="BFGDttCAyRaGTbsQON56-146" value="Security group: Web_SG" style="fillColor=none;strokeColor=#DD3522;verticalAlign=top;fontStyle=0;fontColor=#DD3522;whiteSpace=wrap;html=1;" parent="BFGDttCAyRaGTbsQON56-143" vertex="1">
          <mxGeometry x="12.5" y="40" width="180" height="80" as="geometry" />
        </mxCell>
        <mxCell id="BFGDttCAyRaGTbsQON56-144" value="" style="sketch=0;points=[[0,0,0],[0.25,0,0],[0.5,0,0],[0.75,0,0],[1,0,0],[0,1,0],[0.25,1,0],[0.5,1,0],[0.75,1,0],[1,1,0],[0,0.25,0],[0,0.5,0],[0,0.75,0],[1,0.25,0],[1,0.5,0],[1,0.75,0]];outlineConnect=0;fontColor=#232F3E;fillColor=#ED7100;strokeColor=#ffffff;dashed=0;verticalLabelPosition=bottom;verticalAlign=top;align=center;html=1;fontSize=12;fontStyle=0;aspect=fixed;shape=mxgraph.aws4.resourceIcon;resIcon=mxgraph.aws4.ec2;" parent="BFGDttCAyRaGTbsQON56-143" vertex="1">
          <mxGeometry x="30" y="65" width="40" height="40" as="geometry" />
        </mxCell>
        <mxCell id="BFGDttCAyRaGTbsQON56-138" value="&lt;font style=&quot;font-size: 15px;&quot;&gt;s3878023-subnet-private2: 10.0.4.0/24&lt;/font&gt;" style="points=[[0,0],[0.25,0],[0.5,0],[0.75,0],[1,0],[1,0.25],[1,0.5],[1,0.75],[1,1],[0.75,1],[0.5,1],[0.25,1],[0,1],[0,0.75],[0,0.5],[0,0.25]];outlineConnect=0;gradientColor=none;html=1;whiteSpace=wrap;fontSize=12;fontStyle=0;container=1;pointerEvents=0;collapsible=0;recursiveResize=0;shape=mxgraph.aws4.group;grIcon=mxgraph.aws4.group_security_group;grStroke=0;strokeColor=#00A4A6;fillColor=#E6F6F7;verticalAlign=top;align=left;spacingLeft=30;fontColor=#147EBA;dashed=0;" parent="BFGDttCAyRaGTbsQON56-132" vertex="1">
          <mxGeometry x="620" y="410" width="390" height="380" as="geometry" />
        </mxCell>
        <mxCell id="BFGDttCAyRaGTbsQON56-147" value="Task A" style="text;strokeColor=none;fillColor=none;html=1;fontSize=20;fontStyle=1;verticalAlign=middle;align=center;fontColor=#FF0080;" parent="BFGDttCAyRaGTbsQON56-132" vertex="1">
          <mxGeometry x="255" y="-5" width="92.37" height="40" as="geometry" />
        </mxCell>
        <mxCell id="BFGDttCAyRaGTbsQON56-149" value="Task D" style="text;strokeColor=none;fillColor=none;html=1;fontSize=20;fontStyle=1;verticalAlign=middle;align=center;fontColor=#FF0080;" parent="BFGDttCAyRaGTbsQON56-132" vertex="1">
          <mxGeometry x="910" y="180" width="92.37" height="40" as="geometry" />
        </mxCell>
        <mxCell id="BFGDttCAyRaGTbsQON56-153" value="&lt;span style=&quot;font-size: 18px;&quot;&gt;s3878023-igw&lt;/span&gt;&lt;div&gt;&lt;span style=&quot;font-size: 18px;&quot;&gt;Internet Gateway&lt;/span&gt;&lt;/div&gt;" style="text;html=1;align=center;verticalAlign=middle;whiteSpace=wrap;rounded=0;" parent="BFGDttCAyRaGTbsQON56-132" vertex="1">
          <mxGeometry x="445" y="60" width="200" height="30" as="geometry" />
        </mxCell>
        <mxCell id="BFGDttCAyRaGTbsQON56-135" value="&lt;font style=&quot;font-size: 15px;&quot;&gt;s3878023-subnet-public1: 10.0.1.0/24&lt;/font&gt;" style="points=[[0,0],[0.25,0],[0.5,0],[0.75,0],[1,0],[1,0.25],[1,0.5],[1,0.75],[1,1],[0.75,1],[0.5,1],[0.25,1],[0,1],[0,0.75],[0,0.5],[0,0.25]];outlineConnect=0;gradientColor=none;html=1;whiteSpace=wrap;fontSize=12;fontStyle=0;container=0;pointerEvents=0;collapsible=0;recursiveResize=0;shape=mxgraph.aws4.group;grIcon=mxgraph.aws4.group_security_group;grStroke=0;strokeColor=#7AA116;fillColor=#F2F6E8;verticalAlign=top;align=left;spacingLeft=30;fontColor=#248814;dashed=0;" parent="BFGDttCAyRaGTbsQON56-132" vertex="1">
          <mxGeometry x="80" y="90" width="390" height="310" as="geometry" />
        </mxCell>
        <mxCell id="BFGDttCAyRaGTbsQON56-148" value="Task B" style="text;strokeColor=none;fillColor=none;html=1;fontSize=20;fontStyle=1;verticalAlign=middle;align=center;fontColor=#FF0080;" parent="BFGDttCAyRaGTbsQON56-132" vertex="1">
          <mxGeometry x="330" y="160" width="92.37" height="40" as="geometry" />
        </mxCell>
        <mxCell id="BFGDttCAyRaGTbsQON56-155" value="" style="group" parent="BFGDttCAyRaGTbsQON56-132" vertex="1" connectable="0">
          <mxGeometry x="130" y="140" width="190" height="80" as="geometry" />
        </mxCell>
        <mxCell id="BFGDttCAyRaGTbsQON56-139" value="" style="sketch=0;points=[[0,0,0],[0.25,0,0],[0.5,0,0],[0.75,0,0],[1,0,0],[0,1,0],[0.25,1,0],[0.5,1,0],[0.75,1,0],[1,1,0],[0,0.25,0],[0,0.5,0],[0,0.75,0],[1,0.25,0],[1,0.5,0],[1,0.75,0]];outlineConnect=0;fontColor=#232F3E;fillColor=#ED7100;strokeColor=#ffffff;dashed=0;verticalLabelPosition=bottom;verticalAlign=top;align=center;html=1;fontSize=12;fontStyle=0;aspect=fixed;shape=mxgraph.aws4.resourceIcon;resIcon=mxgraph.aws4.ec2;" parent="BFGDttCAyRaGTbsQON56-155" vertex="1">
          <mxGeometry x="30" y="30" width="35" height="35" as="geometry" />
        </mxCell>
        <mxCell id="BFGDttCAyRaGTbsQON56-141" value="s3878023 Web Server" style="text;html=1;align=center;verticalAlign=middle;whiteSpace=wrap;rounded=0;fontSize=12;" parent="BFGDttCAyRaGTbsQON56-155" vertex="1">
          <mxGeometry x="62.370000000000005" y="32.5" width="105" height="30" as="geometry" />
        </mxCell>
        <mxCell id="BFGDttCAyRaGTbsQON56-140" value="&lt;font style=&quot;font-size: 15px;&quot;&gt;Security Group: Web_SG&lt;/font&gt;" style="fillColor=none;strokeColor=#DD3522;verticalAlign=top;fontStyle=0;fontColor=#DD3522;whiteSpace=wrap;html=1;" parent="BFGDttCAyRaGTbsQON56-155" vertex="1">
          <mxGeometry width="190" height="80" as="geometry" />
        </mxCell>
        <mxCell id="BFGDttCAyRaGTbsQON56-156" value="&lt;font style=&quot;font-size: 15px;&quot;&gt;Security group: Web_SG&lt;/font&gt;" style="fillColor=none;strokeColor=#DD3522;verticalAlign=top;fontStyle=0;fontColor=#DD3522;whiteSpace=wrap;html=1;" parent="BFGDttCAyRaGTbsQON56-132" vertex="1">
          <mxGeometry x="435" y="240" width="220" height="150" as="geometry" />
        </mxCell>
        <mxCell id="BFGDttCAyRaGTbsQON56-157" value="" style="sketch=0;outlineConnect=0;fontColor=#232F3E;gradientColor=none;fillColor=#8C4FFF;strokeColor=none;dashed=0;verticalLabelPosition=bottom;verticalAlign=top;align=center;html=1;fontSize=12;fontStyle=0;aspect=fixed;pointerEvents=1;shape=mxgraph.aws4.application_load_balancer;" parent="BFGDttCAyRaGTbsQON56-132" vertex="1">
          <mxGeometry x="520" y="290" width="50" height="50" as="geometry" />
        </mxCell>
        <mxCell id="BFGDttCAyRaGTbsQON56-158" value="&lt;span style=&quot;font-size: 18px;&quot;&gt;Application Load Balancer: WebELB&lt;/span&gt;" style="text;html=1;align=center;verticalAlign=middle;whiteSpace=wrap;rounded=0;" parent="BFGDttCAyRaGTbsQON56-132" vertex="1">
          <mxGeometry x="445" y="350" width="200" height="30" as="geometry" />
        </mxCell>
        <mxCell id="BFGDttCAyRaGTbsQON56-159" value="&lt;font style=&quot;font-size: 15px;&quot;&gt;Security group: Web_SG&lt;/font&gt;" style="fillColor=none;strokeColor=#DD3522;verticalAlign=top;fontStyle=0;fontColor=#DD3522;whiteSpace=wrap;html=1;" parent="BFGDttCAyRaGTbsQON56-132" vertex="1">
          <mxGeometry x="130" y="240" width="190" height="120" as="geometry" />
        </mxCell>
        <mxCell id="BFGDttCAyRaGTbsQON56-160" value="" style="sketch=0;points=[[0,0,0],[0.25,0,0],[0.5,0,0],[0.75,0,0],[1,0,0],[0,1,0],[0.25,1,0],[0.5,1,0],[0.75,1,0],[1,1,0],[0,0.25,0],[0,0.5,0],[0,0.75,0],[1,0.25,0],[1,0.5,0],[1,0.75,0]];outlineConnect=0;fontColor=#232F3E;fillColor=#ED7100;strokeColor=#ffffff;dashed=0;verticalLabelPosition=bottom;verticalAlign=top;align=center;html=1;fontSize=12;fontStyle=0;aspect=fixed;shape=mxgraph.aws4.resourceIcon;resIcon=mxgraph.aws4.ec2;" parent="BFGDttCAyRaGTbsQON56-132" vertex="1">
          <mxGeometry x="160" y="290" width="38" height="38" as="geometry" />
        </mxCell>
        <mxCell id="BFGDttCAyRaGTbsQON56-161" value="&lt;font style=&quot;font-size: 15px;&quot;&gt;Dynamic Website&lt;/font&gt;" style="text;html=1;align=center;verticalAlign=middle;whiteSpace=wrap;rounded=0;" parent="BFGDttCAyRaGTbsQON56-132" vertex="1">
          <mxGeometry x="190" y="294" width="110" height="30" as="geometry" />
        </mxCell>
        <mxCell id="BFGDttCAyRaGTbsQON56-162" value="Task E" style="text;strokeColor=none;fillColor=none;html=1;fontSize=20;fontStyle=1;verticalAlign=middle;align=center;fontColor=#FF0080;" parent="BFGDttCAyRaGTbsQON56-132" vertex="1">
          <mxGeometry x="498.82" y="210" width="92.37" height="40" as="geometry" />
        </mxCell>
        <mxCell id="BFGDttCAyRaGTbsQON56-163" value="Task F" style="text;strokeColor=none;fillColor=none;html=1;fontSize=20;fontStyle=1;verticalAlign=middle;align=center;fontColor=#FF0080;" parent="BFGDttCAyRaGTbsQON56-132" vertex="1">
          <mxGeometry x="117" y="354" width="92.37" height="40" as="geometry" />
        </mxCell>
        <mxCell id="BFGDttCAyRaGTbsQON56-164" value="Web Auto Scaling group" style="points=[[0,0],[0.25,0],[0.5,0],[0.75,0],[1,0],[1,0.25],[1,0.5],[1,0.75],[1,1],[0.75,1],[0.5,1],[0.25,1],[0,1],[0,0.75],[0,0.5],[0,0.25]];outlineConnect=0;gradientColor=none;html=1;whiteSpace=wrap;fontSize=12;fontStyle=0;container=1;pointerEvents=0;collapsible=0;recursiveResize=0;shape=mxgraph.aws4.groupCenter;grIcon=mxgraph.aws4.group_auto_scaling_group;grStroke=1;strokeColor=#D86613;fillColor=none;verticalAlign=top;align=center;fontColor=#D86613;dashed=1;spacingTop=25;" parent="BFGDttCAyRaGTbsQON56-132" vertex="1">
          <mxGeometry x="320" y="440" width="450" height="200" as="geometry" />
        </mxCell>
        <mxCell id="BFGDttCAyRaGTbsQON56-182" value="" style="group" parent="BFGDttCAyRaGTbsQON56-132" vertex="1" connectable="0">
          <mxGeometry x="340" y="490" width="420" height="140" as="geometry" />
        </mxCell>
        <mxCell id="BFGDttCAyRaGTbsQON56-176" value="" style="group" parent="BFGDttCAyRaGTbsQON56-182" vertex="1" connectable="0">
          <mxGeometry x="22.5" y="40" width="80" height="80" as="geometry" />
        </mxCell>
        <mxCell id="BFGDttCAyRaGTbsQON56-177" value="" style="sketch=0;points=[[0,0,0],[0.25,0,0],[0.5,0,0],[0.75,0,0],[1,0,0],[0,1,0],[0.25,1,0],[0.5,1,0],[0.75,1,0],[1,1,0],[0,0.25,0],[0,0.5,0],[0,0.75,0],[1,0.25,0],[1,0.5,0],[1,0.75,0]];outlineConnect=0;fontColor=#232F3E;fillColor=#ED7100;strokeColor=#ffffff;dashed=0;verticalLabelPosition=bottom;verticalAlign=top;align=center;html=1;fontSize=12;fontStyle=0;aspect=fixed;shape=mxgraph.aws4.resourceIcon;resIcon=mxgraph.aws4.ec2;" parent="BFGDttCAyRaGTbsQON56-176" vertex="1">
          <mxGeometry width="36.36363636363637" height="36.36363636363637" as="geometry" />
        </mxCell>
        <mxCell id="BFGDttCAyRaGTbsQON56-178" value="" style="sketch=0;points=[[0,0,0],[0.25,0,0],[0.5,0,0],[0.75,0,0],[1,0,0],[0,1,0],[0.25,1,0],[0.5,1,0],[0.75,1,0],[1,1,0],[0,0.25,0],[0,0.5,0],[0,0.75,0],[1,0.25,0],[1,0.5,0],[1,0.75,0]];outlineConnect=0;fontColor=#232F3E;fillColor=#ED7100;strokeColor=#ffffff;dashed=0;verticalLabelPosition=bottom;verticalAlign=top;align=center;html=1;fontSize=12;fontStyle=0;aspect=fixed;shape=mxgraph.aws4.resourceIcon;resIcon=mxgraph.aws4.ec2;" parent="BFGDttCAyRaGTbsQON56-176" vertex="1">
          <mxGeometry x="43.63636363636364" width="36.36363636363637" height="36.36363636363637" as="geometry" />
        </mxCell>
        <mxCell id="BFGDttCAyRaGTbsQON56-179" value="" style="sketch=0;points=[[0,0,0],[0.25,0,0],[0.5,0,0],[0.75,0,0],[1,0,0],[0,1,0],[0.25,1,0],[0.5,1,0],[0.75,1,0],[1,1,0],[0,0.25,0],[0,0.5,0],[0,0.75,0],[1,0.25,0],[1,0.5,0],[1,0.75,0]];outlineConnect=0;fontColor=#232F3E;fillColor=#ED7100;strokeColor=#ffffff;dashed=0;verticalLabelPosition=bottom;verticalAlign=top;align=center;html=1;fontSize=12;fontStyle=0;aspect=fixed;shape=mxgraph.aws4.resourceIcon;resIcon=mxgraph.aws4.ec2;" parent="BFGDttCAyRaGTbsQON56-176" vertex="1">
          <mxGeometry y="43.63636363636364" width="36.36363636363637" height="36.36363636363637" as="geometry" />
        </mxCell>
        <mxCell id="BFGDttCAyRaGTbsQON56-180" value="" style="sketch=0;points=[[0,0,0],[0.25,0,0],[0.5,0,0],[0.75,0,0],[1,0,0],[0,1,0],[0.25,1,0],[0.5,1,0],[0.75,1,0],[1,1,0],[0,0.25,0],[0,0.5,0],[0,0.75,0],[1,0.25,0],[1,0.5,0],[1,0.75,0]];outlineConnect=0;fontColor=#232F3E;fillColor=#ED7100;strokeColor=#ffffff;dashed=0;verticalLabelPosition=bottom;verticalAlign=top;align=center;html=1;fontSize=12;fontStyle=0;aspect=fixed;shape=mxgraph.aws4.resourceIcon;resIcon=mxgraph.aws4.ec2;" parent="BFGDttCAyRaGTbsQON56-176" vertex="1">
          <mxGeometry x="43.64" y="43.64" width="36.36" height="36.36" as="geometry" />
        </mxCell>
        <mxCell id="BFGDttCAyRaGTbsQON56-181" value="Auto Scaling Web Instance" style="fillColor=none;strokeColor=#5A6C86;dashed=1;verticalAlign=top;fontStyle=0;fontColor=#5A6C86;whiteSpace=wrap;html=1;" parent="BFGDttCAyRaGTbsQON56-182" vertex="1">
          <mxGeometry width="125" height="130" as="geometry" />
        </mxCell>
        <mxCell id="BFGDttCAyRaGTbsQON56-192" value="Task E" style="text;strokeColor=none;fillColor=none;html=1;fontSize=20;fontStyle=1;verticalAlign=middle;align=center;fontColor=#FF0080;" parent="BFGDttCAyRaGTbsQON56-182" vertex="1">
          <mxGeometry x="158.81" y="50" width="92.37" height="40" as="geometry" />
        </mxCell>
        <mxCell id="BFGDttCAyRaGTbsQON56-183" value="" style="group" parent="BFGDttCAyRaGTbsQON56-132" vertex="1" connectable="0">
          <mxGeometry x="630" y="490" width="125" height="130" as="geometry" />
        </mxCell>
        <mxCell id="BFGDttCAyRaGTbsQON56-173" value="" style="group" parent="BFGDttCAyRaGTbsQON56-183" vertex="1" connectable="0">
          <mxGeometry x="22.5" y="40" width="80" height="80" as="geometry" />
        </mxCell>
        <mxCell id="BFGDttCAyRaGTbsQON56-169" value="" style="sketch=0;points=[[0,0,0],[0.25,0,0],[0.5,0,0],[0.75,0,0],[1,0,0],[0,1,0],[0.25,1,0],[0.5,1,0],[0.75,1,0],[1,1,0],[0,0.25,0],[0,0.5,0],[0,0.75,0],[1,0.25,0],[1,0.5,0],[1,0.75,0]];outlineConnect=0;fontColor=#232F3E;fillColor=#ED7100;strokeColor=#ffffff;dashed=0;verticalLabelPosition=bottom;verticalAlign=top;align=center;html=1;fontSize=12;fontStyle=0;aspect=fixed;shape=mxgraph.aws4.resourceIcon;resIcon=mxgraph.aws4.ec2;" parent="BFGDttCAyRaGTbsQON56-173" vertex="1">
          <mxGeometry width="36.36363636363637" height="36.36363636363637" as="geometry" />
        </mxCell>
        <mxCell id="BFGDttCAyRaGTbsQON56-170" value="" style="sketch=0;points=[[0,0,0],[0.25,0,0],[0.5,0,0],[0.75,0,0],[1,0,0],[0,1,0],[0.25,1,0],[0.5,1,0],[0.75,1,0],[1,1,0],[0,0.25,0],[0,0.5,0],[0,0.75,0],[1,0.25,0],[1,0.5,0],[1,0.75,0]];outlineConnect=0;fontColor=#232F3E;fillColor=#ED7100;strokeColor=#ffffff;dashed=0;verticalLabelPosition=bottom;verticalAlign=top;align=center;html=1;fontSize=12;fontStyle=0;aspect=fixed;shape=mxgraph.aws4.resourceIcon;resIcon=mxgraph.aws4.ec2;" parent="BFGDttCAyRaGTbsQON56-173" vertex="1">
          <mxGeometry x="43.63636363636364" width="36.36363636363637" height="36.36363636363637" as="geometry" />
        </mxCell>
        <mxCell id="BFGDttCAyRaGTbsQON56-171" value="" style="sketch=0;points=[[0,0,0],[0.25,0,0],[0.5,0,0],[0.75,0,0],[1,0,0],[0,1,0],[0.25,1,0],[0.5,1,0],[0.75,1,0],[1,1,0],[0,0.25,0],[0,0.5,0],[0,0.75,0],[1,0.25,0],[1,0.5,0],[1,0.75,0]];outlineConnect=0;fontColor=#232F3E;fillColor=#ED7100;strokeColor=#ffffff;dashed=0;verticalLabelPosition=bottom;verticalAlign=top;align=center;html=1;fontSize=12;fontStyle=0;aspect=fixed;shape=mxgraph.aws4.resourceIcon;resIcon=mxgraph.aws4.ec2;" parent="BFGDttCAyRaGTbsQON56-173" vertex="1">
          <mxGeometry y="43.63636363636364" width="36.36363636363637" height="36.36363636363637" as="geometry" />
        </mxCell>
        <mxCell id="BFGDttCAyRaGTbsQON56-172" value="" style="sketch=0;points=[[0,0,0],[0.25,0,0],[0.5,0,0],[0.75,0,0],[1,0,0],[0,1,0],[0.25,1,0],[0.5,1,0],[0.75,1,0],[1,1,0],[0,0.25,0],[0,0.5,0],[0,0.75,0],[1,0.25,0],[1,0.5,0],[1,0.75,0]];outlineConnect=0;fontColor=#232F3E;fillColor=#ED7100;strokeColor=#ffffff;dashed=0;verticalLabelPosition=bottom;verticalAlign=top;align=center;html=1;fontSize=12;fontStyle=0;aspect=fixed;shape=mxgraph.aws4.resourceIcon;resIcon=mxgraph.aws4.ec2;" parent="BFGDttCAyRaGTbsQON56-173" vertex="1">
          <mxGeometry x="43.64" y="43.64" width="36.36" height="36.36" as="geometry" />
        </mxCell>
        <mxCell id="BFGDttCAyRaGTbsQON56-175" value="Auto Scaling Web Instance" style="fillColor=none;strokeColor=#5A6C86;dashed=1;verticalAlign=top;fontStyle=0;fontColor=#5A6C86;whiteSpace=wrap;html=1;" parent="BFGDttCAyRaGTbsQON56-183" vertex="1">
          <mxGeometry width="125" height="130" as="geometry" />
        </mxCell>
        <mxCell id="BFGDttCAyRaGTbsQON56-190" value="" style="html=1;endArrow=none;elbow=vertical;startArrow=block;startFill=1;strokeColor=#545B64;rounded=0;entryX=0.25;entryY=1;entryDx=0;entryDy=0;exitX=0.25;exitY=0;exitDx=0;exitDy=0;" parent="BFGDttCAyRaGTbsQON56-132" source="BFGDttCAyRaGTbsQON56-164" target="BFGDttCAyRaGTbsQON56-156" edge="1">
          <mxGeometry width="100" relative="1" as="geometry">
            <mxPoint x="430" y="440" as="sourcePoint" />
            <mxPoint x="530" y="410" as="targetPoint" />
          </mxGeometry>
        </mxCell>
        <mxCell id="BFGDttCAyRaGTbsQON56-191" value="" style="html=1;endArrow=none;elbow=vertical;startArrow=block;startFill=1;strokeColor=#545B64;rounded=0;exitX=0.75;exitY=0;exitDx=0;exitDy=0;entryX=0.75;entryY=1;entryDx=0;entryDy=0;" parent="BFGDttCAyRaGTbsQON56-132" source="BFGDttCAyRaGTbsQON56-164" target="BFGDttCAyRaGTbsQON56-156" edge="1">
          <mxGeometry width="100" relative="1" as="geometry">
            <mxPoint x="443" y="450" as="sourcePoint" />
            <mxPoint x="500" y="400" as="targetPoint" />
          </mxGeometry>
        </mxCell>
        <mxCell id="BFGDttCAyRaGTbsQON56-184" value="&lt;font style=&quot;font-size: 12px;&quot;&gt;Security Group: Web_SG&lt;/font&gt;" style="fillColor=none;strokeColor=#DD3522;verticalAlign=top;fontStyle=0;fontColor=#DD3522;whiteSpace=wrap;html=1;align=left;" parent="BFGDttCAyRaGTbsQON56-132" vertex="1">
          <mxGeometry x="330.01" y="460" width="430" height="170" as="geometry" />
        </mxCell>
        <mxCell id="BFGDttCAyRaGTbsQON56-193" value="" style="sketch=0;points=[[0,0,0],[0.25,0,0],[0.5,0,0],[0.75,0,0],[1,0,0],[0,1,0],[0.25,1,0],[0.5,1,0],[0.75,1,0],[1,1,0],[0,0.25,0],[0,0.5,0],[0,0.75,0],[1,0.25,0],[1,0.5,0],[1,0.75,0]];outlineConnect=0;fontColor=#232F3E;fillColor=#C925D1;strokeColor=#ffffff;dashed=0;verticalLabelPosition=bottom;verticalAlign=top;align=center;html=1;fontSize=12;fontStyle=0;aspect=fixed;shape=mxgraph.aws4.resourceIcon;resIcon=mxgraph.aws4.rds;" parent="BFGDttCAyRaGTbsQON56-132" vertex="1">
          <mxGeometry x="160" y="690" width="69" height="69" as="geometry" />
        </mxCell>
        <mxCell id="BFGDttCAyRaGTbsQON56-195" value="" style="sketch=0;points=[[0,0,0],[0.25,0,0],[0.5,0,0],[0.75,0,0],[1,0,0],[0,1,0],[0.25,1,0],[0.5,1,0],[0.75,1,0],[1,1,0],[0,0.25,0],[0,0.5,0],[0,0.75,0],[1,0.25,0],[1,0.5,0],[1,0.75,0]];outlineConnect=0;fontColor=#232F3E;fillColor=#C925D1;strokeColor=#ffffff;dashed=0;verticalLabelPosition=bottom;verticalAlign=top;align=center;html=1;fontSize=12;fontStyle=0;aspect=fixed;shape=mxgraph.aws4.resourceIcon;resIcon=mxgraph.aws4.rds;" parent="BFGDttCAyRaGTbsQON56-132" vertex="1">
          <mxGeometry x="841" y="690" width="69" height="69" as="geometry" />
        </mxCell>
        <mxCell id="BFGDttCAyRaGTbsQON56-196" value="" style="htmDepartman barl=1;endArrow=open;elbow=vertical;startArrow=open;startFill=0;endFill=0;strokeColor=#545B64;rounded=0;entryX=0;entryY=0.5;entryDx=0;entryDy=0;entryPerimeter=0;exitX=1;exitY=0.5;exitDx=0;exitDy=0;exitPerimeter=0;strokeWidth=2;curved=0;" parent="BFGDttCAyRaGTbsQON56-132" source="BFGDttCAyRaGTbsQON56-193" target="BFGDttCAyRaGTbsQON56-195" edge="1">
          <mxGeometry width="100" relative="1" as="geometry">
            <mxPoint x="495" y="734.21" as="sourcePoint" />
            <mxPoint x="595" y="734.21" as="targetPoint" />
          </mxGeometry>
        </mxCell>
        <mxCell id="BFGDttCAyRaGTbsQON56-198" value="Task F" style="text;strokeColor=none;fillColor=none;html=1;fontSize=20;fontStyle=1;verticalAlign=middle;align=center;fontColor=#FF0080;" parent="BFGDttCAyRaGTbsQON56-132" vertex="1">
          <mxGeometry x="97.63" y="630" width="92.37" height="40" as="geometry" />
        </mxCell>
        <mxCell id="BFGDttCAyRaGTbsQON56-199" value="AWS MySQL&amp;nbsp;&lt;div&gt;Instance: web-db&lt;/div&gt;" style="text;html=1;align=center;verticalAlign=middle;whiteSpace=wrap;rounded=0;" parent="BFGDttCAyRaGTbsQON56-132" vertex="1">
          <mxGeometry x="209.37" y="690" width="170" height="30" as="geometry" />
        </mxCell>
        <mxCell id="BFGDttCAyRaGTbsQON56-200" value="AWS MySQL&amp;nbsp;&lt;div&gt;Instance: web-db Replica&lt;/div&gt;" style="text;html=1;align=center;verticalAlign=middle;whiteSpace=wrap;rounded=0;" parent="BFGDttCAyRaGTbsQON56-132" vertex="1">
          <mxGeometry x="671" y="690" width="170" height="30" as="geometry" />
        </mxCell>
        <mxCell id="BFGDttCAyRaGTbsQON56-194" value="Security group: DB_SG" style="fillColor=none;strokeColor=#DD3522;verticalAlign=top;fontStyle=0;fontColor=#DD3522;whiteSpace=wrap;html=1;" parent="BFGDttCAyRaGTbsQON56-132" vertex="1">
          <mxGeometry x="107.5" y="660" width="875" height="120" as="geometry" />
        </mxCell>
        <mxCell id="BFGDttCAyRaGTbsQON56-197" value="db_subnet_group" style="fillColor=none;strokeColor=#5A6C86;dashed=1;verticalAlign=top;fontStyle=0;fontColor=#5A6C86;whiteSpace=wrap;html=1;" parent="1" vertex="1">
          <mxGeometry x="10" y="990" width="830" height="90" as="geometry" />
        </mxCell>
        <mxCell id="BFGDttCAyRaGTbsQON56-201" value="" style="html=1;endArrow=none;elbow=vertical;startArrow=block;startFill=1;strokeColor=#545B64;rounded=0;entryX=0.5;entryY=1;entryDx=0;entryDy=0;exitX=0.084;exitY=0.111;exitDx=0;exitDy=0;exitPerimeter=0;" parent="1" source="BFGDttCAyRaGTbsQON56-197" target="BFGDttCAyRaGTbsQON56-159" edge="1">
          <mxGeometry width="100" relative="1" as="geometry">
            <mxPoint x="490" y="810" as="sourcePoint" />
            <mxPoint x="590" y="810" as="targetPoint" />
          </mxGeometry>
        </mxCell>
      </root>
    </mxGraphModel>
  </diagram>
</mxfile>
